<?xml version="1.0" encoding="UTF-8" standalone="no"?><!DOCTYPE svg PUBLIC "-//W3C//DTD SVG 1.1//EN" "http://www.w3.org/Graphics/SVG/1.1/DTD/svg11.dtd"><svg width="100%" height="100%" viewBox="0 0 383 76" version="1.1" xmlns="http://www.w3.org/2000/svg" xmlns:xlink="http://www.w3.org/1999/xlink" xml:space="preserve" xmlns:serif="http://www.serif.com/" style="fill-rule:evenodd;clip-rule:evenodd;stroke-linejoin:round;stroke-miterlimit:2;"><path d="M333.38,52.294c-0.213,-0 -0.415,-0.094 -0.552,-0.257c-0.136,-0.163 -0.194,-0.378 -0.158,-0.587c1.091,-6.257 7.909,-45.347 8.862,-50.815c0.063,-0.362 0.388,-0.618 0.754,-0.595c1.384,0.086 4.594,0.286 5.558,0.346c0.18,0.011 0.348,0.089 0.473,0.218c1.906,1.972 17.282,17.878 21.214,21.945c0.182,0.189 0.453,0.264 0.707,0.194c0.254,-0.069 0.449,-0.271 0.51,-0.527c1.034,-4.323 4.376,-18.303 5.083,-21.26c0.077,-0.324 0.367,-0.553 0.7,-0.553c1.173,0 3.87,0 5.271,0c0.216,0 0.421,0.097 0.557,0.265c0.137,0.167 0.191,0.387 0.148,0.599c-1.284,6.312 -9.206,45.239 -10.267,50.45c-0.068,0.336 -0.363,0.577 -0.705,0.577l-4.865,-0c-0.196,-0 -0.384,-0.08 -0.519,-0.222c-2.023,-2.107 -17.887,-18.632 -21.905,-22.818c-0.184,-0.19 -0.457,-0.265 -0.711,-0.195c-0.255,0.07 -0.451,0.275 -0.51,0.533c-1.028,4.467 -4.393,19.097 -5.093,22.143c-0.076,0.327 -0.367,0.558 -0.702,0.559c-0.928,-0 -2.766,-0 -3.85,-0Z" style="fill:#fff;"/><path d="M11.051,1.414c-0.351,-0 -0.651,0.253 -0.71,0.599c-0.89,5.245 -7.35,43.284 -8.395,49.44c-0.036,0.209 0.023,0.423 0.16,0.585c0.136,0.162 0.338,0.256 0.55,0.256c2.513,-0 9.848,-0 11.992,-0c0.345,-0 0.642,-0.246 0.707,-0.585c0.629,-3.274 3.708,-19.317 4.336,-22.591c0.065,-0.339 0.362,-0.584 0.707,-0.584l7.928,-0c0.21,-0 0.409,0.091 0.546,0.25c0.137,0.159 0.197,0.37 0.166,0.577c-0.556,3.669 -2.794,18.436 -3.349,22.105c-0.032,0.207 0.029,0.418 0.166,0.577c0.136,0.159 0.336,0.251 0.545,0.251l12.249,-0c0.345,-0.001 0.641,-0.245 0.707,-0.584c1.001,-5.178 8.36,-43.227 9.561,-49.44c0.041,-0.211 -0.014,-0.429 -0.151,-0.595c-0.137,-0.166 -0.341,-0.261 -0.555,-0.261c-2.641,-0 -10.498,-0 -12.705,-0c-0.34,-0.001 -0.634,0.237 -0.704,0.569c-0.576,2.697 -3.022,14.164 -3.597,16.861c-0.071,0.332 -0.365,0.569 -0.704,0.57c-1.491,-0 -5.45,-0 -7.202,-0c-0.213,-0.001 -0.414,-0.094 -0.551,-0.257c-0.137,-0.162 -0.195,-0.377 -0.159,-0.586c0.524,-3.022 2.304,-13.293 2.828,-16.315c0.036,-0.209 -0.022,-0.424 -0.159,-0.586c-0.136,-0.163 -0.338,-0.257 -0.55,-0.256c-2.747,-0 -11.298,-0 -13.657,-0Z" style="fill:#fff;"/><path d="M66.401,42.694c0.222,-0 0.431,0.102 0.567,0.276c0.137,0.175 0.185,0.403 0.131,0.618c-0.489,1.958 -1.643,6.575 -2.04,8.16c-0.08,0.321 -0.368,0.546 -0.698,0.546c-3.063,-0 -17.772,-0 -22.329,-0c-0.266,-0 -0.51,-0.147 -0.635,-0.381c-0.125,-0.235 -0.111,-0.519 0.037,-0.74c4.487,-6.7 27.734,-41.406 32.482,-48.494c0.155,-0.232 0.429,-0.353 0.704,-0.312c0.276,0.041 0.503,0.238 0.583,0.504c2.288,7.578 12.786,42.353 14.64,48.494c0.066,0.219 0.025,0.455 -0.111,0.638c-0.136,0.183 -0.351,0.29 -0.578,0.291c-3.116,-0 -12.814,-0 -15.264,-0c-0.333,-0 -0.622,-0.228 -0.7,-0.551c-0.832,-3.44 -5.326,-22.012 -6.68,-27.611c-0.067,-0.278 -0.293,-0.49 -0.574,-0.54c-0.282,-0.05 -0.566,0.072 -0.725,0.31c-2.51,3.764 -9.482,14.223 -11.782,17.672c-0.147,0.221 -0.161,0.505 -0.035,0.739c0.125,0.234 0.369,0.381 0.634,0.381l12.373,-0Z" style="fill:#fff;"/><path d="M112.6,1.414c-8.959,-0 -16.659,6.353 -18.36,15.149c-1.253,6.478 -2.713,14.028 -3.967,20.514c-0.725,3.747 0.262,7.623 2.692,10.567c2.429,2.944 6.046,4.65 9.864,4.65l20.139,-0c0.349,-0.001 0.647,-0.25 0.709,-0.592c0.297,-1.64 1.13,-6.248 1.476,-8.16c0.038,-0.21 -0.019,-0.426 -0.156,-0.59c-0.136,-0.164 -0.339,-0.258 -0.552,-0.258l-15.367,-0c-0.814,-0.001 -1.594,-0.328 -2.165,-0.908c-0.57,-0.581 -0.884,-1.367 -0.87,-2.181c0.19,-9.83 1.749,-18.268 4.885,-27.098c0.426,-1.191 1.555,-1.986 2.82,-1.986c4.331,-0.003 14.093,-0.003 16.598,-0.003c0.345,-0 0.642,-0.245 0.707,-0.584c0.3,-1.56 1.12,-5.83 1.472,-7.665c0.041,-0.211 -0.015,-0.429 -0.152,-0.594c-0.136,-0.166 -0.34,-0.262 -0.555,-0.261l-19.218,-0Z" style="fill:#fff;"/><path d="M135.619,2.01c0.06,-0.345 0.359,-0.597 0.709,-0.596l12.7,-0c0.212,-0 0.414,0.093 0.551,0.256c0.137,0.162 0.195,0.377 0.158,0.586c-0.497,2.877 -2.137,12.367 -2.863,16.567c-0.052,0.302 0.092,0.603 0.36,0.752c0.267,0.149 0.6,0.112 0.828,-0.091c4.637,-4.127 18.264,-16.257 20.096,-17.888c0.132,-0.118 0.303,-0.182 0.479,-0.182c0.941,-0 4.092,-0 6.043,-0c0.283,-0.001 0.54,0.166 0.657,0.425c0.116,0.258 0.069,0.561 -0.119,0.773c-3.433,3.862 -14.09,15.851 -15.94,17.932c-0.17,0.192 -0.226,0.459 -0.146,0.703c1.057,3.22 8.288,25.249 9.881,30.102c0.072,0.219 0.035,0.46 -0.101,0.647c-0.135,0.187 -0.352,0.298 -0.583,0.298c-2.854,-0 -11.007,-0 -13.134,-0c-0.306,-0 -0.579,-0.195 -0.68,-0.485c-0.915,-2.639 -5.332,-15.368 -7.178,-20.69c-0.105,-0.302 -0.397,-0.499 -0.717,-0.483c-0.32,0.017 -0.591,0.243 -0.664,0.555c-1.248,5.316 -4.171,17.77 -4.822,20.547c-0.077,0.325 -0.367,0.555 -0.701,0.556c-2.196,-0 -10.104,-0 -12.733,-0c-0.213,-0 -0.415,-0.094 -0.551,-0.257c-0.137,-0.163 -0.195,-0.378 -0.159,-0.587c1.077,-6.168 7.716,-44.209 8.629,-49.44Z" style="fill:#fff;"/><path d="M203.838,1.55c-0.077,-0.274 -0.307,-0.476 -0.588,-0.518c-0.281,-0.042 -0.56,0.086 -0.712,0.325c-4.739,7.427 -27.478,43.072 -31.789,49.829c-0.141,0.222 -0.15,0.503 -0.024,0.734c0.127,0.23 0.369,0.374 0.631,0.374l21.827,-0c0.356,-0 0.659,-0.261 0.712,-0.614c0.25,-1.664 0.94,-6.269 1.224,-8.16c0.031,-0.207 -0.03,-0.418 -0.166,-0.576c-0.137,-0.159 -0.336,-0.25 -0.546,-0.25c-2.265,-0 -8.531,-0 -11.281,-0c-0.264,-0 -0.507,-0.145 -0.633,-0.376c-0.126,-0.232 -0.115,-0.514 0.028,-0.735c2.176,-3.367 8.694,-13.452 11.098,-17.171c0.156,-0.242 0.441,-0.367 0.724,-0.32c0.283,0.048 0.511,0.259 0.58,0.538c1.912,7.724 10.073,40.702 11.225,45.356c0.079,0.322 0.368,0.547 0.699,0.548c10.077,-0 152.048,-0 162.722,-0c0.362,-0.001 0.668,-0.27 0.714,-0.63c0.276,-2.168 1.188,-9.334 1.497,-11.76c0.026,-0.205 -0.037,-0.411 -0.174,-0.566c-0.137,-0.156 -0.334,-0.244 -0.54,-0.244c-11.541,-0 -141.554,-0 -151.037,-0c-0.323,-0.001 -0.606,-0.215 -0.693,-0.526c-1.446,-5.155 -13.091,-46.674 -15.498,-55.258Z" style="fill:#fff;"/><path d="M223.199,0c-0.346,-0 -0.643,0.246 -0.708,0.585c-0.323,1.695 -1.264,6.618 -1.645,8.613c-0.04,0.211 0.016,0.429 0.153,0.594c0.137,0.166 0.34,0.262 0.555,0.262c1.867,-0 6.237,-0 8.102,-0c0.214,-0.001 0.417,0.095 0.554,0.26c0.136,0.165 0.193,0.382 0.153,0.592c-1.018,5.428 -6.582,35.107 -7.6,40.535c-0.039,0.21 0.017,0.427 0.154,0.592c0.136,0.165 0.339,0.261 0.554,0.261c2.528,-0 9.847,-0 11.981,-0c0.344,-0 0.639,-0.243 0.706,-0.58c0.933,-4.691 7.237,-36.39 8.17,-41.081c0.067,-0.337 0.363,-0.58 0.706,-0.579c1.946,-0 8.141,-0 10.094,-0c0.345,-0 0.642,-0.246 0.707,-0.585c0.324,-1.696 1.264,-6.619 1.645,-8.614c0.04,-0.211 -0.016,-0.429 -0.153,-0.594c-0.136,-0.165 -0.34,-0.261 -0.554,-0.261c-4.946,0 -29.433,0 -33.574,0Z" style="fill:#fff;"/><path d="M260.155,0c-0.344,0 -0.64,0.243 -0.706,0.581c-1.037,5.253 -8.788,44.526 -10.036,50.853c-0.042,0.211 0.013,0.43 0.15,0.597c0.137,0.166 0.341,0.262 0.556,0.263c2.603,-0 10.248,-0 12.447,-0c0.346,-0 0.643,-0.247 0.707,-0.588c0.603,-3.214 3.497,-18.651 4.1,-21.865c0.064,-0.341 0.361,-0.588 0.708,-0.587c1.542,-0 5.659,-0 7.441,-0c0.21,-0.001 0.41,0.092 0.547,0.251c0.137,0.16 0.197,0.372 0.164,0.58c-0.561,3.594 -2.778,17.783 -3.34,21.377c-0.032,0.208 0.028,0.42 0.164,0.58c0.137,0.159 0.337,0.252 0.547,0.252c2.669,-0 10.905,-0 13.2,-0c0.347,-0.001 0.645,-0.248 0.708,-0.59c0.978,-5.289 8.236,-44.556 9.399,-50.853c0.039,-0.21 -0.017,-0.427 -0.154,-0.592c-0.137,-0.164 -0.34,-0.259 -0.554,-0.259l-12.953,0c-0.339,0 -0.632,0.236 -0.704,0.568c-0.608,2.812 -3.292,15.225 -3.9,18.038c-0.072,0.331 -0.365,0.568 -0.704,0.568c-1.462,-0 -5.298,-0 -6.993,-0c-0.208,-0 -0.406,-0.091 -0.543,-0.247c-0.136,-0.157 -0.199,-0.366 -0.17,-0.572c0.432,-3.139 1.982,-14.397 2.414,-17.537c0.029,-0.206 -0.033,-0.414 -0.17,-0.571c-0.137,-0.157 -0.335,-0.247 -0.543,-0.247c-2.454,0 -9.664,0 -11.782,0Z" style="fill:#fff;"/><path d="M311.479,0c3.696,0 7.988,0 11.97,0.006c3.586,0 7.004,1.522 9.403,4.187c2.399,2.666 3.554,6.224 3.178,9.79c-1.014,9.881 -3.192,19.969 -6.535,29.761c-1.755,5.115 -6.565,8.55 -11.972,8.55c-3.641,-0 -7.979,-0 -12.105,-0.01c-3.755,0 -7.316,-1.668 -9.718,-4.554c-2.403,-2.885 -3.4,-6.69 -2.72,-10.382c1.741,-9.305 3.843,-18.778 6.282,-27.999c1.494,-5.518 6.5,-9.349 12.217,-9.349Zm3.942,8.5c-2.386,0 -4.449,1.664 -4.955,3.996c-1.68,7.63 -4.186,19.066 -5.454,26.837c-0.151,1.118 0.188,2.246 0.93,3.095c0.742,0.849 1.814,1.337 2.942,1.337c1.583,0.002 3.335,0.002 4.817,0.002c2.038,-0 3.831,-1.348 4.398,-3.306c2.107,-7.733 4.703,-19.879 5.448,-27.888c0.045,-1.062 -0.346,-2.095 -1.081,-2.862c-0.736,-0.767 -1.752,-1.2 -2.815,-1.2c-1.359,-0.011 -2.872,-0.011 -4.23,-0.011Z" style="fill:#fff;"/><g><path d="M0,74.958c0.157,-1.311 0.265,-2.363 0.325,-3.157c0.09,-1.176 0.176,-2.792 0.258,-4.848c0.082,-2.057 0.123,-3.441 0.123,-4.151l0,-1.065c2.251,0.013 4.344,0.019 6.28,0.019c1.952,-0 3.828,-0.006 5.63,-0.019c-0.12,1.485 -0.18,2.457 -0.18,2.915l-0.975,-0.029l-1.57,-0.019l-2.209,-0c-0.255,-0 -0.998,0.006 -2.232,0.019l-0.101,2.257l1.626,0.029l1.817,0c0.523,0 1.323,-0.01 2.4,-0.029c-0.083,1.22 -0.124,2.176 -0.124,2.867c-1.203,-0.032 -2.097,-0.048 -2.68,-0.048c-0.987,-0 -2.063,0.016 -3.229,0.048l-0.113,3.487l-0.011,1.298l0,0.426l-2.411,-0.019c-0.187,0 -1.061,0.006 -2.624,0.019Z" style="fill:#fff;fill-rule:nonzero;"/><path d="M14.096,74.958l0.224,-2.479l0.292,-4.843l0.123,-3.429c0.008,-0.368 0.012,-0.737 0.012,-1.105c-0,-0.277 -0.004,-0.733 -0.012,-1.365c0.987,0.019 1.78,0.029 2.378,0.029c0.575,-0 1.364,-0.015 2.366,-0.044c1.002,-0.029 1.85,-0.044 2.546,-0.044c1.001,0 1.743,0.055 2.226,0.165c0.482,0.11 0.917,0.283 1.306,0.518c0.389,0.236 0.71,0.512 0.964,0.829c0.255,0.316 0.445,0.676 0.572,1.08c0.127,0.403 0.191,0.815 0.191,1.235c-0,0.865 -0.243,1.656 -0.729,2.373c-0.486,0.716 -1.17,1.252 -2.052,1.608c-0.882,0.355 -1.873,0.532 -2.972,0.532c-0.404,0 -0.871,-0.038 -1.402,-0.116c-0.059,-0.297 -0.172,-0.739 -0.336,-1.327c-0.165,-0.588 -0.299,-1.023 -0.404,-1.308c0.329,0.059 0.673,0.088 1.032,0.088c0.755,-0 1.318,-0.157 1.688,-0.47c0.37,-0.313 0.555,-0.696 0.555,-1.148c-0,-0.22 -0.041,-0.415 -0.124,-0.586c-0.082,-0.171 -0.213,-0.312 -0.392,-0.421c-0.18,-0.11 -0.378,-0.181 -0.594,-0.213c-0.217,-0.033 -0.464,-0.049 -0.741,-0.049c-0.269,0 -0.549,0.007 -0.841,0.019l-0.942,0.059c-0.097,1.246 -0.172,2.631 -0.224,4.155c-0.097,2.777 -0.146,4.443 -0.146,4.998l0,1.259l-2.231,-0.019c-0.314,0 -1.092,0.006 -2.333,0.019Z" style="fill:#fff;fill-rule:nonzero;"/><path d="M32.117,74.958c0.374,-3.138 0.598,-6.593 0.673,-10.364l-4.777,0.107l0.056,-1.076c0.03,-0.574 0.052,-1.204 0.067,-1.888c2.123,0.013 4.598,0.019 7.424,0.019l2.77,-0.01l2.691,0l1.458,-0.009l-0.067,0.948c-0.03,0.509 -0.051,0.93 -0.062,1.262c-0.011,0.333 -0.017,0.584 -0.017,0.754c-1.6,-0.071 -2.919,-0.107 -3.958,-0.107l-0.785,0c-0.112,1.141 -0.198,2.195 -0.258,3.162c-0.082,1.385 -0.146,2.731 -0.191,4.036c-0.045,1.305 -0.067,2.361 -0.067,3.166c-1.226,-0.013 -2.019,-0.019 -2.377,-0.019c-0.322,0 -1.182,0.006 -2.58,0.019Z" style="fill:#fff;fill-rule:nonzero;"/><path d="M49.701,61.737c1.166,0.013 1.989,0.019 2.467,0.019c0.598,-0 1.394,-0.006 2.389,-0.019l-0.337,4.116c-0.067,0.775 -0.117,1.502 -0.151,2.18c-0.034,0.678 -0.051,1.146 -0.051,1.404c0,0.491 0.042,0.901 0.124,1.23c0.082,0.33 0.232,0.609 0.448,0.838c0.217,0.229 0.518,0.402 0.903,0.518c0.385,0.117 0.787,0.175 1.206,0.175c0.359,-0 0.695,-0.042 1.009,-0.127c0.247,-0.069 0.467,-0.165 0.662,-0.288c0.172,-0.116 0.321,-0.25 0.448,-0.404c0.157,-0.185 0.295,-0.415 0.415,-0.692c0.12,-0.262 0.209,-0.6 0.269,-1.015c0.067,-0.423 0.157,-1.384 0.269,-2.884c0.098,-1.276 0.172,-2.445 0.225,-3.506c0.044,-1.03 0.086,-1.545 0.123,-1.545l4.945,-0l-0.549,6.877c-0.008,0.129 -0.011,0.236 -0.011,0.32c-0.03,1.343 -0.126,2.29 -0.286,2.842c-0.161,0.553 -0.428,1.032 -0.802,1.439c-0.374,0.407 -0.92,0.773 -1.637,1.099c-0.718,0.326 -1.533,0.557 -2.445,0.693c-0.912,0.135 -1.835,0.203 -2.77,0.203c-0.837,0 -1.645,-0.051 -2.422,-0.155c-0.718,-0.103 -1.365,-0.253 -1.94,-0.45c-0.576,-0.197 -1.077,-0.428 -1.503,-0.693c-0.389,-0.245 -0.688,-0.495 -0.897,-0.75c-0.209,-0.256 -0.374,-0.561 -0.493,-0.916c-0.135,-0.4 -0.202,-0.83 -0.202,-1.288c-0,-0.155 0.007,-0.389 0.022,-0.702c0.015,-0.314 0.049,-0.764 0.101,-1.352l0.146,-1.549c0.037,-0.407 0.078,-1.005 0.123,-1.792l0.202,-3.826Z" style="fill:#fff;fill-rule:nonzero;"/><path d="M66.892,74.958l0.225,-2.034l0.437,-6.896l0.123,-2.78l0,-1.511c1.159,0.013 2.183,0.019 3.073,0.019c0.635,-0 1.529,-0.006 2.68,-0.019l4.8,7.519l0.661,1.105c0.083,-1.086 0.167,-2.607 0.253,-4.564c0.086,-1.958 0.129,-3.311 0.129,-4.06c0.919,0.013 1.656,0.019 2.209,0.019c0.254,-0 0.987,-0.006 2.198,-0.019l-0.269,2.886l-0.505,8.02l-0.067,2.315c-0.972,-0.013 -1.88,-0.019 -2.725,-0.019c-0.703,0 -1.675,0.006 -2.916,0.019c-0.389,-0.633 -0.676,-1.091 -0.863,-1.376l-1.884,-2.761c-0.621,-0.905 -1.193,-1.77 -1.716,-2.597c-0.344,-0.524 -0.699,-1.099 -1.065,-1.725l-0.236,4.593l-0.112,3.866c-0.927,-0.013 -1.634,-0.019 -2.12,-0.019c-0.411,0 -1.181,0.006 -2.31,0.019Z" style="fill:#fff;fill-rule:nonzero;"/><path d="M85.777,74.958c0.434,-5.185 0.65,-9.176 0.65,-11.972l-0.011,-1.249c1.308,0.013 2.183,0.019 2.624,0.019c0.202,-0 1.006,-0.006 2.411,-0.019c-0.134,1.453 -0.243,2.828 -0.325,4.126c-0.105,1.808 -0.179,3.498 -0.224,5.071c-0.045,1.572 -0.067,2.914 -0.067,4.024l-2.299,-0.019c-0.449,0 -1.369,0.006 -2.759,0.019Z" style="fill:#fff;fill-rule:nonzero;"/><path d="M97.653,74.958l-0.415,-1.181l-2.736,-6.81l-2.154,-5.23c1.017,0.013 1.922,0.019 2.714,0.019c0.486,-0 1.249,-0.006 2.288,-0.019c0.172,0.574 0.306,1.01 0.404,1.308c0.134,0.387 0.388,1.088 0.762,2.102l1.649,4.582c0.164,0.478 0.366,1.102 0.605,1.87l0.516,-1.114l3.914,-7.402c0.067,-0.135 0.144,-0.29 0.23,-0.465c0.086,-0.174 0.222,-0.468 0.409,-0.881c1.084,0.013 1.955,0.019 2.613,0.019c0.411,-0 1.226,-0.006 2.445,-0.019c-0.763,1.227 -1.626,2.66 -2.591,4.3l-3.869,6.626c-0.374,0.645 -0.792,1.411 -1.256,2.295c-1.256,-0.013 -2.153,-0.019 -2.691,-0.019c-0.501,0 -1.447,0.006 -2.837,0.019Z" style="fill:#fff;fill-rule:nonzero;"/><path d="M110.874,74.958c0.187,-1.666 0.324,-3.06 0.409,-4.184c0.086,-1.124 0.172,-2.617 0.258,-4.48c0.086,-1.863 0.129,-3.098 0.129,-3.705l-0.011,-0.852c1.765,0.013 3.899,0.019 6.403,0.019c2.311,-0 4.348,-0.006 6.112,-0.019l-0.022,0.318c-0.008,0.077 -0.026,0.357 -0.056,0.84l-0.068,1.052c-0.015,0.226 -0.022,0.454 -0.022,0.686c-1.443,-0.052 -2.654,-0.078 -3.633,-0.078c-1.077,0 -1.804,0.002 -2.182,0.005c-0.377,0.003 -0.966,0.018 -1.766,0.044l-0.134,2.228c0.882,0.019 1.91,0.029 3.083,0.029c0.419,-0 1.533,-0.023 3.342,-0.068c-0.074,0.826 -0.145,1.811 -0.213,2.954c-1.293,-0.013 -2.287,-0.019 -2.983,-0.019c-1.031,-0 -2.186,0.022 -3.465,0.068l-0.134,2.353l1.289,0c0.381,0 1.17,-0.009 2.366,-0.029l2.322,-0.048c0.344,-0.007 0.919,-0.032 1.727,-0.078c-0.09,0.956 -0.165,1.944 -0.225,2.964c-1.824,-0.013 -3.824,-0.019 -5.999,-0.019l-4.934,0.01l-1.593,0.009Z" style="fill:#fff;fill-rule:nonzero;"/><path d="M126.002,74.958c0.142,-1.136 0.254,-2.16 0.336,-3.07c0.083,-0.911 0.154,-1.966 0.214,-3.168c0.059,-1.201 0.104,-2.468 0.134,-3.801c0.03,-1.334 0.045,-2.395 0.045,-3.182c0.934,0.019 1.69,0.029 2.265,0.029c0.598,-0 1.327,-0.015 2.187,-0.044c0.86,-0.029 1.697,-0.044 2.512,-0.044c0.957,0 1.809,0.033 2.557,0.097c0.56,0.046 1.071,0.139 1.53,0.281c0.46,0.142 0.847,0.315 1.161,0.518c0.314,0.204 0.576,0.431 0.785,0.683c0.209,0.252 0.372,0.548 0.488,0.887c0.116,0.339 0.174,0.702 0.174,1.089c-0,0.433 -0.064,0.838 -0.191,1.216c-0.127,0.378 -0.327,0.733 -0.6,1.065c-0.273,0.333 -0.617,0.62 -1.032,0.863c-0.414,0.242 -0.996,0.489 -1.743,0.741l0.583,1.23c0.164,0.342 0.34,0.691 0.527,1.046l1.503,2.838c0.067,0.123 0.186,0.365 0.358,0.726c-1.233,-0.013 -2.063,-0.019 -2.489,-0.019c-0.538,0 -1.421,0.006 -2.647,0.019c-0.119,-0.335 -0.336,-0.959 -0.65,-1.869c-0.127,-0.381 -0.236,-0.675 -0.325,-0.882c-0.18,-0.458 -0.445,-1.101 -0.796,-1.927l-1.156,-2.741c0.404,0.064 0.8,0.097 1.189,0.097c0.546,-0 1.041,-0.071 1.486,-0.214c0.445,-0.142 0.781,-0.361 1.009,-0.658c0.228,-0.297 0.342,-0.61 0.342,-0.94c0,-0.277 -0.086,-0.521 -0.258,-0.731c-0.172,-0.21 -0.443,-0.367 -0.813,-0.47c-0.37,-0.103 -0.94,-0.155 -1.71,-0.155c-0.261,0 -0.532,0.005 -0.813,0.015c-0.28,0.009 -0.607,0.017 -0.981,0.024c-0.097,1.324 -0.183,2.938 -0.258,4.843c-0.075,1.905 -0.123,3.774 -0.146,5.608c-1.248,-0.013 -2.059,-0.019 -2.433,-0.019c-0.434,0 -1.215,0.006 -2.344,0.019Z" style="fill:#fff;fill-rule:nonzero;"/><path d="M141.982,74.755c-0.097,-1.375 -0.209,-2.476 -0.336,-3.303c0.837,0.323 1.583,0.547 2.237,0.673c0.654,0.126 1.228,0.189 1.721,0.189c0.651,0 1.168,-0.082 1.554,-0.247c0.385,-0.165 0.577,-0.408 0.577,-0.731c0,-0.11 -0.019,-0.215 -0.056,-0.315c-0.037,-0.1 -0.108,-0.213 -0.213,-0.339c-0.105,-0.126 -0.254,-0.263 -0.449,-0.412l-2.108,-1.588c-0.493,-0.362 -0.837,-0.623 -1.032,-0.785c-0.396,-0.329 -0.704,-0.636 -0.925,-0.92c-0.22,-0.284 -0.381,-0.573 -0.482,-0.867c-0.101,-0.294 -0.151,-0.605 -0.151,-0.935c-0,-0.394 0.08,-0.78 0.241,-1.157c0.16,-0.378 0.402,-0.732 0.723,-1.061c0.321,-0.329 0.748,-0.613 1.278,-0.852c0.531,-0.239 1.099,-0.402 1.705,-0.489c0.606,-0.088 1.23,-0.131 1.873,-0.131c1.263,-0 2.639,0.126 4.127,0.378c0.022,0.445 0.048,0.854 0.078,1.225c0.03,0.371 0.101,1.022 0.213,1.952c-0.688,-0.239 -1.316,-0.406 -1.884,-0.499c-0.568,-0.094 -1.058,-0.141 -1.469,-0.141c-0.583,0 -1.067,0.094 -1.452,0.281c-0.385,0.187 -0.578,0.42 -0.578,0.698c0,0.129 0.03,0.255 0.09,0.377c0.06,0.123 0.172,0.267 0.336,0.431c0.165,0.165 0.382,0.346 0.651,0.543c0.269,0.197 0.691,0.489 1.267,0.876l0.807,0.553c0.24,0.167 0.498,0.371 0.774,0.61c0.277,0.239 0.516,0.474 0.718,0.707c0.202,0.232 0.357,0.446 0.465,0.639c0.109,0.194 0.189,0.389 0.241,0.586c0.053,0.197 0.079,0.409 0.079,0.635c-0,0.581 -0.161,1.135 -0.482,1.661c-0.322,0.526 -0.778,0.959 -1.368,1.298c-0.591,0.339 -1.24,0.576 -1.946,0.712c-0.707,0.135 -1.452,0.203 -2.237,0.203c-1.211,0 -2.74,-0.152 -4.587,-0.455Z" style="fill:#fff;fill-rule:nonzero;"/><path d="M154.856,74.958c0.434,-5.185 0.65,-9.176 0.65,-11.972l-0.011,-1.249c1.309,0.013 2.183,0.019 2.624,0.019c0.202,-0 1.006,-0.006 2.411,-0.019c-0.134,1.453 -0.243,2.828 -0.325,4.126c-0.105,1.808 -0.179,3.498 -0.224,5.071c-0.045,1.572 -0.067,2.914 -0.067,4.024l-2.299,-0.019c-0.449,0 -1.368,0.006 -2.759,0.019Z" style="fill:#fff;fill-rule:nonzero;"/><path d="M166.07,74.958c0.374,-3.138 0.598,-6.593 0.673,-10.364l-4.777,0.107l0.056,-1.076c0.03,-0.574 0.052,-1.204 0.067,-1.888c2.123,0.013 4.598,0.019 7.424,0.019l2.77,-0.01l2.691,0l1.458,-0.009l-0.067,0.948c-0.03,0.509 -0.051,0.93 -0.062,1.262c-0.011,0.333 -0.017,0.584 -0.017,0.754c-1.6,-0.071 -2.919,-0.107 -3.958,-0.107l-0.785,0c-0.113,1.141 -0.198,2.195 -0.258,3.162c-0.083,1.385 -0.146,2.731 -0.191,4.036c-0.045,1.305 -0.067,2.361 -0.067,3.166c-1.226,-0.013 -2.019,-0.019 -2.378,-0.019c-0.321,0 -1.181,0.006 -2.579,0.019Z" style="fill:#fff;fill-rule:nonzero;"/><path d="M180.48,74.958c0.075,-0.523 0.165,-1.411 0.269,-2.663c0.105,-1.253 0.157,-2.138 0.157,-2.654l-5.136,-7.904c1.129,0.013 2.06,0.019 2.793,0.019c0.702,-0 1.544,-0.006 2.523,-0.019c0.299,0.645 0.704,1.414 1.217,2.308c0.512,0.893 0.929,1.691 1.25,2.394c0.86,-1.309 1.551,-2.33 2.075,-3.062c0.523,-0.732 0.897,-1.279 1.121,-1.64c0.949,0.013 1.862,0.019 2.736,0.019c0.464,-0 1.305,-0.006 2.523,-0.019l-4.923,6.267c-0.979,1.252 -1.469,1.908 -1.469,1.966l-0.011,0.097l0,0.097l-0.011,0.097l-0.079,1.472c-0.052,0.975 -0.093,2.05 -0.123,3.225c-1.054,-0.013 -1.869,-0.019 -2.445,-0.019c-0.59,0 -1.413,0.006 -2.467,0.019Z" style="fill:#fff;fill-rule:nonzero;"/></g></svg>